HIERARCHY
ROOT Hips
{
	OFFSET 0.000000 0.000000 0.000000
	CHANNELS 6 Xposition Yposition Zposition Xrotation Yrotation Zrotation
	JOINT LeftUpLeg_virtual
	{
		OFFSET 0.000000 0.000000 0.000000
		CHANNELS 3 Xrotation Yrotation Zrotation
		JOINT LeftUpLeg
		{
			OFFSET 10.205400 -3.823500 0.155100
			CHANNELS 3 Xrotation Yrotation Zrotation
			JOINT LeftLeg
			{
				OFFSET 0.708757 -12.982077 0.567790
				CHANNELS 3 Xrotation Yrotation Zrotation
				JOINT LeftFoot
				{
					OFFSET -0.708756 -10.717838 -2.184338
					CHANNELS 3 Xrotation Yrotation Zrotation
					JOINT LeftToeBase
					{
						OFFSET 0.108149 -7.191104 7.560241
						CHANNELS 3 Xrotation Yrotation Zrotation
						JOINT LeftToe_End
						{
							OFFSET 0.070230 0.081724 4.490308
							CHANNELS 3 Xrotation Yrotation Zrotation
							End Site
							{
								OFFSET 0 0 0
							}
						}
					}
				}
			}
		}
	}
	JOINT RightUpLeg_virtual
	{
		OFFSET 0.000000 0.000000 0.000000
		CHANNELS 3 Xrotation Yrotation Zrotation
		JOINT RightUpLeg
		{
			OFFSET -10.205400 -3.823500 0.005500
			CHANNELS 3 Xrotation Yrotation Zrotation
			JOINT RightLeg
			{
				OFFSET -0.708756 -12.982134 0.610632
				CHANNELS 3 Xrotation Yrotation Zrotation
				JOINT RightFoot
				{
					OFFSET 0.708754 -10.717769 -1.945823
					CHANNELS 3 Xrotation Yrotation Zrotation
					JOINT RightToeBase
					{
						OFFSET -0.108140 -7.191069 7.372968
						CHANNELS 3 Xrotation Yrotation Zrotation
						JOINT RightToe_End
						{
							OFFSET -0.070227 0.081735 4.479403
							CHANNELS 3 Xrotation Yrotation Zrotation
							End Site
							{
								OFFSET 0 0 0
							}
						}
					}
				}
			}
		}
	}
	JOINT Spine_virtual
	{
		OFFSET 0.000000 0.000000 0.000000
		CHANNELS 3 Xrotation Yrotation Zrotation
		JOINT Spine
		{
			OFFSET 0.000000 6.876099 0.125700
			CHANNELS 3 Xrotation Yrotation Zrotation
			JOINT Spine1
			{
				OFFSET 0.000000 5.730043 0.104720
				CHANNELS 3 Xrotation Yrotation Zrotation
				JOINT Spine1_split
				{
					OFFSET 0.000000 5.730043 0.104720
					CHANNELS 3 Xrotation Yrotation Zrotation
					JOINT Spine2
					{
						OFFSET 0.000000 5.730043 0.104720
						CHANNELS 3 Xrotation Yrotation Zrotation
						JOINT Neck_virtual
						{
							OFFSET 0.000000 0.000000 0.000000
							CHANNELS 3 Xrotation Yrotation Zrotation
							JOINT Neck
							{
								OFFSET 0.000000 10.314075 0.188496
								CHANNELS 3 Xrotation Yrotation Zrotation
								JOINT Head
								{
									OFFSET 0.000000 7.643700 -2.377400
									CHANNELS 3 Xrotation Yrotation Zrotation
									JOINT HeadTop_End
									{
										OFFSET 0.000000 43.788605 -13.619600
										CHANNELS 3 Xrotation Yrotation Zrotation
										End Site
										{
											OFFSET 0 0 0
										}
									}
								}
							}
						}
						JOINT LeftShoulder_virtual
						{
							OFFSET 0.000000 0.000000 0.000000
							CHANNELS 3 Xrotation Yrotation Zrotation
							JOINT LeftShoulder
							{
								OFFSET 2.196100 4.412489 0.087492
								CHANNELS 3 Xrotation Yrotation Zrotation
								JOINT LeftShoulder_split
								{
									OFFSET 2.196100 4.412489 0.087492
									CHANNELS 3 Xrotation Yrotation Zrotation
									JOINT LeftArm
									{
										OFFSET 8.771219 -2.981674 -0.026999
										CHANNELS 3 Xrotation Yrotation Zrotation
										JOINT LeftForeArm
										{
											OFFSET 8.512804 0.000000 -0.000000
											CHANNELS 3 Xrotation Yrotation Zrotation
											JOINT LeftHand
											{
												OFFSET 18.484802 0.000000 -0.000000
												CHANNELS 3 Xrotation Yrotation Zrotation
												End Site
												{
													OFFSET 0 0 0
												}
											}
										}
									}
								}
							}
						}
						JOINT RightShoulder_virtual
						{
							OFFSET 0.000000 0.000000 0.000000
							CHANNELS 3 Xrotation Yrotation Zrotation
							JOINT RightShoulder
							{
								OFFSET -2.196100 4.412496 0.070690
								CHANNELS 3 Xrotation Yrotation Zrotation
								JOINT RightShoulder_split
								{
									OFFSET -2.196100 4.412496 0.070690
									CHANNELS 3 Xrotation Yrotation Zrotation
									JOINT RightArm
									{
										OFFSET -8.771282 -2.981682 -0.094208
										CHANNELS 3 Xrotation Yrotation Zrotation
										JOINT RightForeArm
										{
											OFFSET -8.494598 0.000000 0.000000
											CHANNELS 3 Xrotation Yrotation Zrotation
											JOINT RightHand
											{
												OFFSET -18.483803 0.000000 0.000001
												CHANNELS 3 Xrotation Yrotation Zrotation
												End Site
												{
													OFFSET 0 0 0
												}
											}
										}
									}
								}
							}
						}
					}
				}
			}
		}
	}
}
MOTION
Frames: 4
Frame Time: 0.03333333
1.720002 26.745935 -1.616386 0.000000 0.000000 0.000000 4.030665 15.872569 -3.093720 20.312706 28.822913 18.780995 37.268927 8.459460 -9.411637 -35.709414 15.070029 -13.970928 -27.058331 -1.698266 0.778703 0.000000 0.000000 0.000000 3.271937 16.008959 -3.151595 -58.779836 18.406585 -0.045932 64.302905 -3.228881 3.595571 -5.917794 -6.713097 16.779593 8.230035 10.943235 -21.785751 0.000000 0.000000 0.000000 2.646809 16.854708 -1.767029 2.542774 -2.221433 -0.393875 4.384172 -6.577648 2.830183 0.019702 -0.458434 -0.239269 0.000000 0.000000 0.000000 4.632380 -3.493653 3.784085 -5.927620 10.634832 -9.945302 -15.087558 -50.472390 -42.967108 0.000000 0.000000 0.000000 3.346908 -6.048653 2.094781 0.329352 2.095466 -4.396046 1.589052 -1.515816 0.680246 -15.484000 11.229936 -58.421197 130.170155 -74.288826 123.922076 0.000000 0.000000 0.000000 3.344739 -5.777360 3.158476 -1.319534 -3.792939 15.238562 4.363771 5.619851 0.529805 -10.783176 -11.650540 61.755654 176.692459 59.718598 -169.922129 0.000000 0.000000 0.000000 
1.718759 27.451948 -1.603977 0.000000 0.000000 0.000000 4.691510 16.789532 -3.015653 17.711439 24.746880 20.398297 39.405834 9.474565 -10.052227 -26.233570 14.763182 -11.778525 -24.224944 -0.883629 -1.360153 0.000000 0.000000 0.000000 3.242828 17.337180 -2.988544 -55.870039 17.670499 -1.354462 59.692356 -3.914812 3.610899 -4.216395 -6.537983 18.489997 4.467438 11.718366 -20.986431 0.000000 0.000000 0.000000 2.417930 17.842300 -2.024447 2.132667 -2.124997 0.407436 4.458601 -6.587352 2.785584 -0.140731 0.041661 -0.149826 0.000000 0.000000 0.000000 4.376731 -3.600914 3.602005 -6.127848 10.677902 -9.892516 -13.579284 -49.957274 -42.470226 0.000000 0.000000 0.000000 3.498495 -6.008339 2.097922 0.351060 0.654376 -3.761808 3.019002 -3.863454 1.644448 -20.023231 9.431403 -57.779248 133.012347 -73.929749 127.083961 0.000000 0.000000 0.000000 3.712478 -5.711338 2.900834 -1.455731 -3.345524 14.233431 3.259240 6.394383 -0.841951 -14.252834 -9.884558 62.519679 177.469242 55.935681 -171.565787 0.000000 0.000000 0.000000 
1.721303 28.519390 -1.403805 0.000000 0.000000 0.000000 4.675705 19.787434 -2.937469 11.606915 20.138324 21.748311 42.771304 11.139718 -10.185321 -10.506595 13.625889 -10.579843 -21.448324 0.661819 -6.969774 0.000000 0.000000 0.000000 3.886225 20.036485 -3.099792 -50.080996 16.795871 -2.163109 50.752766 -6.117502 3.655387 -3.321647 -7.484981 16.788221 3.510069 12.109573 -18.018433 0.000000 0.000000 0.000000 2.275183 20.319203 -2.283971 1.619016 -2.034949 1.726627 4.683680 -6.784663 2.399387 -0.128272 0.433552 -0.021070 0.000000 0.000000 0.000000 4.297754 -3.719285 3.069463 -5.059905 10.542035 -9.240870 -9.784466 -48.512129 -39.546222 0.000000 0.000000 0.000000 3.924965 -6.013335 1.841711 0.380922 -1.506323 -3.717095 4.755901 -5.256763 1.595329 -26.719499 5.366402 -55.884505 136.551915 -74.747138 131.232728 0.000000 0.000000 0.000000 4.366177 -5.755167 2.367631 -1.514427 -3.266751 12.133427 3.067702 5.131463 -1.345643 -21.274461 -4.858892 62.313564 178.843026 55.450150 -174.001487 0.000000 0.000000 0.000000 
1.861828 29.644777 -1.240677 0.000000 0.000000 0.000000 4.144314 23.175049 -2.871542 2.590449 15.754315 22.290102 47.605063 12.243848 -9.679501 8.588191 10.752969 -11.885134 -24.519206 2.682011 -12.532736 0.000000 0.000000 0.000000 4.377386 22.823910 -3.299649 -43.336669 15.555667 -2.307069 41.026528 -8.923269 3.618524 -2.087852 -9.066029 13.090233 3.917436 12.311886 -14.006841 0.000000 0.000000 0.000000 2.221021 23.752075 -2.313567 1.055109 -1.943334 3.154969 5.066669 -7.083103 1.852954 -0.033906 0.625950 0.071491 0.000000 0.000000 0.000000 4.526771 -3.777067 2.424162 -2.992724 10.326557 -7.922129 -4.839283 -45.992277 -35.350686 0.000000 0.000000 0.000000 4.545719 -6.039746 1.508210 0.338294 -4.018252 -4.025578 6.018853 -5.196558 1.113007 -34.873716 -0.133121 -53.641461 138.163512 -76.987037 133.630821 0.000000 0.000000 0.000000 5.187315 -5.874350 1.769989 -1.550957 -3.533182 9.195282 3.527023 3.005067 -1.089217 -30.676114 1.945569 62.124095 -178.792742 58.852434 -177.402416 0.000000 0.000000 0.000000 
